# xmcd
#
# Track frame offsets: 
#        150
#        24609
#        48322
#        68780
#        89161
#        114997
#        141221
#        159355
#        180461
#        201420
#        229342
#        255732
#        282206
#
# Disc length: 4032 seconds
#
# Revision: 0
# Processed by: cddbd v1.5.2PL0 Copyright (c) Steve Scherf et al.
# Submitted via: ExactAudioCopy v1.0b4
#
DISCID=ba0fbe0d
DTITLE=John Primer and The Real Deal Bluesband - That Will Never Do
DYEAR=2016
DGENRE=Blues
TTITLE0=That Will Never Do
TTITLE1=Mannish Boy
TTITLE2=Hold Me In Your Arms
TTITLE3=Forty Days and Forty Nights
TTITLE4=You Gonna Wreck My Life
TTITLE5=Cross My Heart
TTITLE6=Sittin' Here Waitin'
TTITLE7=Confessin' The Blues
TTITLE8=It's A Sin To Tell A Lie
TTITLE9=Hungry Country Girl
TTITLE10=Down In The Bottom
TTITLE11=Take The Bitter With The Sweet
TTITLE12=The Time Has Come
EXTD=
EXTT0=
EXTT1=
EXTT2=
EXTT3=
EXTT4=
EXTT5=
EXTT6=
EXTT7=
EXTT8=
EXTT9=
EXTT10=
EXTT11=
EXTT12=
PLAYORDER=
